<?xml version="1.0" encoding="utf-8"?>
<!-- Generator: Adobe Illustrator 19.0.0, SVG Export Plug-In . SVG Version: 6.00 Build 0)  -->
<svg version="1.1" id="图层_1" xmlns="http://www.w3.org/2000/svg" xmlns:xlink="http://www.w3.org/1999/xlink" x="0px" y="0px"
	 viewBox="0 0 246.2 146.8" style="enable-background:new 0 0 246.2 146.8;" xml:space="preserve">
<style type="text/css">
	.st0{fill:#231815;}
	.st1{fill:#E7421E;}
	.st2{fill:#666666;}
</style>
<g id="XMLID_2_">
	<path id="XMLID_4_" class="st0" d="M50.7,86.3h-12v-48h12V86.3h24v12h-24V86.3z M50.7,26.3h24v12h12v12h-12v-12h-24V26.3z
		 M74.7,74.3h12v12h-12V74.3z"/>
	<path id="XMLID_8_" class="st0" d="M98.7,26.3h36v12h12v48h-12v-48h-24v48h24v12h-36V26.3z"/>
	<rect id="XMLID_41_" x="158.7" y="26.3" class="st0" width="12" height="72"/>
	<rect id="XMLID_42_" x="194.7" y="26.3" class="st0" width="12" height="72"/>
</g>
<rect id="XMLID_30_" x="182.8" y="55.1" class="st1" width="12" height="12.1"/>
<rect id="XMLID_11_" x="170.7" y="43" class="st0" width="12" height="12.1"/>
<g id="XMLID_171_">
	<rect id="XMLID_19_" x="38.8" y="109.4" class="st2" width="12" height="12.1"/>
	<rect id="XMLID_36_" x="194.8" y="109.4" class="st2" width="12" height="12.1"/>
</g>
<g id="XMLID_170_">
	<g id="XMLID_70_">
		<path id="XMLID_71_" class="st2" d="M80.2,107.9h4.6v9c0,0.9-0.1,1.7-0.4,2.5c-0.3,0.8-0.7,1.5-1.3,2.1c-0.6,0.6-1.2,1-1.9,1.2
			c-0.9,0.3-2,0.5-3.3,0.5c-0.7,0-1.5-0.1-2.4-0.2c-0.9-0.1-1.6-0.3-2.2-0.6s-1.1-0.7-1.6-1.3c-0.5-0.6-0.8-1.1-1-1.7
			c-0.3-1-0.4-1.8-0.4-2.5v-9H75v9.2c0,0.8,0.2,1.5,0.7,1.9c0.5,0.5,1.1,0.7,1.9,0.7c0.8,0,1.4-0.2,1.9-0.7c0.5-0.5,0.7-1.1,0.7-1.9
			V107.9z"/>
		<path id="XMLID_75_" class="st2" d="M119.6,107.9h4.7v15h-4.7V107.9z"/>
		<path id="XMLID_77_" class="st2" d="M134,115.4c0-2.5,0.7-4.4,2.1-5.7c1.4-1.4,3.3-2.1,5.7-2.1c2.5,0,4.4,0.7,5.8,2
			c1.4,1.3,2,3.2,2,5.6c0,1.8-0.3,3.2-0.9,4.3c-0.6,1.1-1.4,2-2.6,2.6c-1.1,0.6-2.5,0.9-4.2,0.9c-1.7,0-3.1-0.3-4.2-0.8
			c-1.1-0.5-2-1.4-2.7-2.6S134,117.2,134,115.4z M138.6,115.4c0,1.5,0.3,2.6,0.8,3.3c0.6,0.7,1.3,1,2.3,1c1,0,1.8-0.3,2.3-1
			s0.8-1.8,0.8-3.5c0-1.4-0.3-2.4-0.9-3.1c-0.6-0.7-1.3-1-2.3-1c-0.9,0-1.7,0.3-2.3,1C138.9,112.8,138.6,113.9,138.6,115.4z"/>
	</g>
	<g id="XMLID_82_">
		<polygon id="XMLID_83_" class="st2" points="104.9,107.9 104.9,116.2 104.9,116.1 104.9,122.9 104.9,122.9 109.3,122.9 
			109.3,107.9 		"/>
		<rect id="XMLID_84_" x="94.9" y="107.9" class="st2" width="4.3" height="15"/>
	</g>
	<rect id="XMLID_35_" x="99.2" y="112" class="st2" width="2.9" height="3.1"/>
	<rect id="XMLID_74_" x="102.1" y="115.1" class="st2" width="2.9" height="3.1"/>
	<g id="XMLID_85_">
		<polygon id="XMLID_87_" class="st2" points="170.8,107.9 170.8,116.2 170.7,116.1 170.7,122.9 170.8,122.9 175.1,122.9 
			175.1,107.9 		"/>
		<rect id="XMLID_86_" x="160.8" y="107.9" class="st2" width="4.3" height="15"/>
	</g>
	<rect id="XMLID_81_" x="165" y="112" class="st2" width="2.9" height="3.1"/>
	<rect id="XMLID_80_" x="168" y="115.1" class="st2" width="2.9" height="3.1"/>
</g>
</svg>
